<?xml version="1.0" encoding="UTF-8" standalone="no"?>
<!DOCTYPE svg PUBLIC "-//W3C//DTD SVG 1.1//EN" "http://www.w3.org/Graphics/SVG/1.1/DTD/svg11.dtd">
<svg width="100%" height="100%" viewBox="0 0 200 200" version="1.1" xmlns="http://www.w3.org/2000/svg" xmlns:xlink="http://www.w3.org/1999/xlink" xml:space="preserve" xmlns:serif="http://www.serif.com/" style="fill-rule:evenodd;clip-rule:evenodd;stroke-linejoin:round;stroke-miterlimit:2;">
    <rect x="0" y="0" width="200" height="200" style="fill:white;"/>
    <g transform="matrix(1,0,0,1,-8.92376,34.7923)">
        <g transform="matrix(80,0,0,80,28.7675,54.8952)">
            <path d="M0.129,-0.566L0.441,-0.465L0.391,-0.332L0.063,-0.406L0.129,-0.566ZM0.844,-0.535L0.941,-0.379L0.227,0.082L0.117,-0.078L0.844,-0.535ZM0.258,-0.82L0.539,-0.68L0.473,-0.539L0.176,-0.676L0.258,-0.82Z" style="fill-rule:nonzero;"/>
        </g>
        <g transform="matrix(80,0,0,80,108.768,54.8952)">
            <path d="M0.367,-0.785C0.349,-0.647 0.339,-0.54 0.336,-0.465C0.333,-0.405 0.335,-0.309 0.34,-0.176L0.176,-0.18C0.155,-0.398 0.164,-0.604 0.203,-0.797L0.367,-0.785ZM0.578,-0.266C0.599,-0.38 0.618,-0.561 0.637,-0.809L0.824,-0.797C0.801,-0.544 0.78,-0.359 0.762,-0.242C0.749,-0.164 0.724,-0.055 0.688,0.086L0.508,0.047C0.536,-0.063 0.56,-0.167 0.578,-0.266Z" style="fill-rule:nonzero;"/>
        </g>
        <g transform="matrix(80,0,0,80,28.7675,134.895)">
            <path d="M0.813,-0.27L0.641,-0.348L0.762,-0.625C0.652,-0.615 0.553,-0.603 0.465,-0.59C0.382,-0.577 0.258,-0.552 0.094,-0.516L0.074,-0.703L0.426,-0.762C0.574,-0.785 0.686,-0.794 0.762,-0.789C0.842,-0.781 0.897,-0.747 0.926,-0.688C0.949,-0.638 0.941,-0.568 0.902,-0.477L0.813,-0.27ZM0.57,-0.477L0.395,0.078L0.207,0.012L0.391,-0.516L0.57,-0.477Z" style="fill-rule:nonzero;"/>
        </g>
        <g transform="matrix(80,0,0,80,108.768,134.895)">
            <path d="M0.121,-0.352C0.145,-0.471 0.168,-0.587 0.191,-0.699L0.383,-0.668C0.346,-0.52 0.319,-0.398 0.301,-0.305C0.285,-0.219 0.268,-0.094 0.25,0.07L0.059,0.031C0.085,-0.141 0.105,-0.268 0.121,-0.352ZM0.668,-0.781C0.645,-0.563 0.637,-0.344 0.645,-0.125L0.867,-0.266L0.941,-0.102L0.781,-0C0.669,0.07 0.582,0.091 0.52,0.063C0.47,0.039 0.445,-0.012 0.445,-0.09C0.445,-0.15 0.46,-0.382 0.488,-0.785L0.668,-0.781Z" style="fill-rule:nonzero;"/>
        </g>
    </g>
</svg>
